<?xml version="1.0" encoding="UTF-8" standalone="no"?>
<!DOCTYPE svg PUBLIC "-//W3C//DTD SVG 1.1//EN" "http://www.w3.org/Graphics/SVG/1.1/DTD/svg11.dtd">
<svg width="100%" height="100%" viewBox="0 0 423 71" version="1.1" xmlns="http://www.w3.org/2000/svg" xmlns:xlink="http://www.w3.org/1999/xlink" xml:space="preserve" xmlns:serif="http://www.serif.com/" style="fill-rule:evenodd;clip-rule:evenodd;stroke-linejoin:round;stroke-miterlimit:2;">
    <g transform="matrix(1,0,0,1,-86,-175)">
        <g>
            <g transform="matrix(1,0,0,1,111.095,227.632)">
                <path d="M0,-49.027L0,-34.319L-14.642,-34.319L-19.735,-34.319C-22.338,-34.319 -24.448,-32.209 -24.448,-29.606L-24.448,-4.713C-24.448,-2.11 -22.338,0 -19.735,0L5.092,0C7.695,0 9.806,-2.11 9.806,-4.713L9.806,-9.805L0,-9.805L-14.642,-9.805L-14.642,-24.513L0,-24.513L0,-14.708L9.806,-14.708L9.806,-19.611L9.806,-24.513L9.806,-29.416L9.806,-34.319L9.806,-39.222L9.806,-44.124L9.806,-49.027L0,-49.027Z" style="fill:white;fill-rule:nonzero;"/>
            </g>
            <g transform="matrix(1,0,0,1,282.647,242.34)">
                <path d="M0,-49.027L-5.06,-49.027L-5.092,-49.027L-19.735,-49.027L-24.827,-49.027C-27.43,-49.027 -29.541,-46.917 -29.541,-44.314L-29.541,-19.421C-29.541,-16.818 -27.43,-14.708 -24.827,-14.708L-9.855,-14.708L-9.855,-24.513L-19.735,-24.513L-19.735,-39.221L-5.092,-39.221L-5.092,-9.805L-19.735,-9.805L-19.735,0L0,0C2.603,0 4.713,-2.11 4.713,-4.713L4.713,-9.805L4.713,-14.708L4.713,-19.611L4.713,-24.513L4.713,-29.416L4.713,-39.221L4.713,-44.314C4.713,-46.917 2.603,-49.027 0,-49.027" style="fill:white;fill-rule:nonzero;"/>
            </g>
            <g transform="matrix(1,0,0,1,184.569,203.118)">
                <path d="M0,0.001L14.643,0.001L14.643,-9.805L0,-9.805L0,-14.707L0,-19.61L0,-24.513L-9.805,-24.513L-9.805,19.801C-9.805,22.404 -7.695,24.514 -5.092,24.514L14.643,24.514L14.643,14.709L0,14.709L0,4.903L0,0.001Z" style="fill:white;fill-rule:nonzero;"/>
            </g>
            <g transform="matrix(1,0,0,1,404.81,227.632)">
                <path d="M0,-19.611L-9.805,-19.611L-9.805,0L0.043,0L0.043,-9.805L0,-9.805L0,-19.611Z" style="fill:white;fill-rule:nonzero;"/>
            </g>
            <g transform="matrix(1,0,0,1,424.587,227.632)">
                <path d="M0,-34.319L-5.092,-34.319L-13.644,-34.319L-19.734,-34.319L-29.582,-34.319L-33.356,-34.319L-44.225,-34.319L-49.317,-34.319C-51.92,-34.319 -54.03,-32.209 -54.03,-29.606L-54.03,0L-44.225,0L-44.225,-4.903L-44.225,-9.805L-44.225,-24.513L-5.092,-24.513L-5.092,0L4.714,0L4.714,-9.805L4.714,-19.611L4.714,-24.513L4.714,-29.606C4.714,-32.209 2.604,-34.319 0,-34.319" style="fill:white;fill-rule:nonzero;"/>
            </g>
            <g transform="matrix(1,0,0,1,297.206,222.919)">
                <path d="M0,-24.893L0,4.713L9.806,4.713L9.806,-0.19L9.806,-5.092L9.806,-19.8L9.806,-29.606L4.713,-29.606C2.11,-29.606 0,-27.496 0,-24.893" style="fill:white;fill-rule:nonzero;"/>
            </g>
            <g transform="matrix(1,0,0,1,0,-445.458)">
                <rect x="311.849" y="638.771" width="9.805" height="9.806" style="fill:white;"/>
            </g>
            <g transform="matrix(1,0,0,1,160.246,227.632)">
                <path d="M0,-34.319L-5.092,-34.319L-19.735,-34.319L-24.827,-34.319C-27.43,-34.319 -29.54,-32.209 -29.54,-29.606L-29.54,-4.713C-29.54,-2.11 -27.43,0 -24.827,0L-9.929,0L-9.929,-9.805L-19.735,-9.805L-19.735,-24.513L-5.092,-24.513L-5.092,0L4.713,0L4.713,-9.805L4.713,-14.708L4.713,-19.611L4.713,-24.513L4.713,-29.606C4.713,-32.209 2.603,-34.319 0,-34.319" style="fill:white;fill-rule:nonzero;"/>
            </g>
            <g transform="matrix(1,0,0,1,356.031,227.632)">
                <path d="M0,-34.319L-5.093,-34.319L-19.735,-34.319L-24.827,-34.319C-27.431,-34.319 -29.541,-32.209 -29.541,-29.606L-29.541,-4.713C-29.541,-2.11 -27.431,0 -24.827,0L-9.93,0L-9.93,-9.805L-19.735,-9.805L-19.735,-24.513L-5.093,-24.513L-5.093,0L4.713,0L4.713,-9.805L4.713,-14.708L4.713,-19.611L4.713,-24.513L4.713,-29.606C4.713,-32.209 2.603,-34.319 0,-34.319" style="fill:white;fill-rule:nonzero;"/>
            </g>
            <g transform="matrix(1,0,0,1,238.573,227.632)">
                <path d="M0,-34.319L-5.093,-34.319L-19.735,-34.319L-24.828,-34.319C-27.43,-34.319 -29.541,-32.209 -29.541,-29.606L-29.541,-4.713C-29.541,-2.11 -27.43,0 -24.828,0L-9.93,0L-9.93,-9.805L-19.735,-9.805L-19.735,-24.513L-5.093,-24.513L-5.093,0L4.713,0L4.713,-9.805L4.713,-14.708L4.713,-19.611L4.713,-24.513L4.713,-29.606C4.713,-32.209 2.603,-34.319 0,-34.319" style="fill:white;fill-rule:nonzero;"/>
            </g>
            <g>
                <g transform="matrix(1,0,0,1,446.302,245.194)">
                    <path d="M0,-9.92L-4.312,-9.92C-5.86,-9.92 -7.116,-8.665 -7.116,-7.116L-7.116,-2.804C-7.116,-1.255 -5.86,0 -4.312,0L0,0C1.549,0 2.805,-1.255 2.805,-2.804L2.805,-7.116C2.805,-8.665 1.549,-9.92 0,-9.92" style="fill:rgb(227,10,120);fill-rule:nonzero;"/>
                </g>
                <g transform="matrix(1,0,0,1,446.302,230.313)">
                    <path d="M0,-9.92L-4.312,-9.92C-5.86,-9.92 -7.116,-8.665 -7.116,-7.116L-7.116,-2.804C-7.116,-1.255 -5.86,0 -4.312,0L0,0C1.549,0 2.805,-1.255 2.805,-2.804L2.805,-7.116C2.805,-8.665 1.549,-9.92 0,-9.92" style="fill:rgb(227,10,120);fill-rule:nonzero;"/>
                </g>
                <g transform="matrix(1,0,0,1,446.302,215.432)">
                    <path d="M0,-9.92L-4.312,-9.92C-5.86,-9.92 -7.116,-8.665 -7.116,-7.116L-7.116,-2.804C-7.116,-1.255 -5.86,0 -4.312,0L0,0C1.549,0 2.805,-1.255 2.805,-2.804L2.805,-7.116C2.805,-8.665 1.549,-9.92 0,-9.92" style="fill:rgb(227,10,120);fill-rule:nonzero;"/>
                </g>
                <g transform="matrix(1,0,0,1,446.302,200.552)">
                    <path d="M0,-9.92L-4.312,-9.92C-5.86,-9.92 -7.116,-8.665 -7.116,-7.116L-7.116,-2.804C-7.116,-1.255 -5.86,0 -4.312,0L0,0C1.549,0 2.805,-1.255 2.805,-2.804L2.805,-7.116C2.805,-8.665 1.549,-9.92 0,-9.92" style="fill:rgb(227,10,120);fill-rule:nonzero;"/>
                </g>
                <g transform="matrix(1,0,0,1,446.302,185.671)">
                    <path d="M0,-9.92L-4.312,-9.92C-5.86,-9.92 -7.116,-8.665 -7.116,-7.116L-7.116,-2.804C-7.116,-1.255 -5.86,0 -4.312,0L0,0C1.549,0 2.805,-1.255 2.805,-2.804L2.805,-7.116C2.805,-8.665 1.549,-9.92 0,-9.92" style="fill:rgb(227,10,120);fill-rule:nonzero;"/>
                </g>
                <g transform="matrix(1,0,0,1,461.183,245.194)">
                    <path d="M0,-9.92L-4.312,-9.92C-5.86,-9.92 -7.116,-8.665 -7.116,-7.116L-7.116,-2.804C-7.116,-1.255 -5.86,0 -4.312,0L0,0C1.549,0 2.804,-1.255 2.804,-2.804L2.804,-7.116C2.804,-8.665 1.549,-9.92 0,-9.92" style="fill:rgb(216,0,67);fill-rule:nonzero;"/>
                </g>
                <g transform="matrix(1,0,0,1,461.183,230.313)">
                    <path d="M0,-9.92L-4.312,-9.92C-5.86,-9.92 -7.116,-8.665 -7.116,-7.116L-7.116,-2.804C-7.116,-1.255 -5.86,0 -4.312,0L0,0C1.549,0 2.804,-1.255 2.804,-2.804L2.804,-7.116C2.804,-8.665 1.549,-9.92 0,-9.92" style="fill:rgb(216,0,67);fill-rule:nonzero;"/>
                </g>
                <g transform="matrix(1,0,0,1,461.183,215.432)">
                    <path d="M0,-9.92L-4.312,-9.92C-5.86,-9.92 -7.116,-8.665 -7.116,-7.116L-7.116,-2.804C-7.116,-1.255 -5.86,0 -4.312,0L0,0C1.549,0 2.804,-1.255 2.804,-2.804L2.804,-7.116C2.804,-8.665 1.549,-9.92 0,-9.92" style="fill:rgb(216,0,67);fill-rule:nonzero;"/>
                </g>
                <g transform="matrix(1,0,0,1,461.183,200.552)">
                    <path d="M0,-9.92L-4.312,-9.92C-5.86,-9.92 -7.116,-8.665 -7.116,-7.116L-7.116,-2.804C-7.116,-1.255 -5.86,0 -4.312,0L0,0C1.549,0 2.804,-1.255 2.804,-2.804L2.804,-7.116C2.804,-8.665 1.549,-9.92 0,-9.92" style="fill:rgb(216,0,67);fill-rule:nonzero;"/>
                </g>
                <g transform="matrix(1,0,0,1,461.183,185.671)">
                    <path d="M0,-9.92L-4.312,-9.92C-5.86,-9.92 -7.116,-8.665 -7.116,-7.116L-7.116,-2.804C-7.116,-1.255 -5.86,0 -4.312,0L0,0C1.549,0 2.804,-1.255 2.804,-2.804L2.804,-7.116C2.804,-8.665 1.549,-9.92 0,-9.92" style="fill:rgb(216,0,67);fill-rule:nonzero;"/>
                </g>
                <g transform="matrix(1,0,0,1,476.063,245.194)">
                    <path d="M0,-9.92L-4.312,-9.92C-5.861,-9.92 -7.116,-8.665 -7.116,-7.116L-7.116,-2.804C-7.116,-1.255 -5.861,0 -4.312,0L0,0C1.549,0 2.804,-1.255 2.804,-2.804L2.804,-7.116C2.804,-8.665 1.549,-9.92 0,-9.92" style="fill:rgb(229,57,23);fill-rule:nonzero;"/>
                </g>
                <g transform="matrix(1,0,0,1,476.063,230.313)">
                    <path d="M0,-9.92L-4.312,-9.92C-5.861,-9.92 -7.116,-8.665 -7.116,-7.116L-7.116,-2.804C-7.116,-1.255 -5.861,0 -4.312,0L0,0C1.549,0 2.804,-1.255 2.804,-2.804L2.804,-7.116C2.804,-8.665 1.549,-9.92 0,-9.92" style="fill:rgb(229,57,23);fill-rule:nonzero;"/>
                </g>
                <g transform="matrix(1,0,0,1,476.063,215.432)">
                    <path d="M0,-9.92L-4.312,-9.92C-5.861,-9.92 -7.116,-8.665 -7.116,-7.116L-7.116,-2.804C-7.116,-1.255 -5.861,0 -4.312,0L0,0C1.549,0 2.804,-1.255 2.804,-2.804L2.804,-7.116C2.804,-8.665 1.549,-9.92 0,-9.92" style="fill:rgb(229,57,23);fill-rule:nonzero;"/>
                </g>
                <g transform="matrix(1,0,0,1,476.063,200.552)">
                    <path d="M0,-9.92L-4.312,-9.92C-5.861,-9.92 -7.116,-8.665 -7.116,-7.116L-7.116,-2.804C-7.116,-1.255 -5.861,0 -4.312,0L0,0C1.549,0 2.804,-1.255 2.804,-2.804L2.804,-7.116C2.804,-8.665 1.549,-9.92 0,-9.92" style="fill:rgb(229,57,23);fill-rule:nonzero;"/>
                </g>
                <g transform="matrix(1,0,0,1,476.063,185.671)">
                    <path d="M0,-9.92L-4.312,-9.92C-5.861,-9.92 -7.116,-8.665 -7.116,-7.116L-7.116,-2.804C-7.116,-1.255 -5.861,0 -4.312,0L0,0C1.549,0 2.804,-1.255 2.804,-2.804L2.804,-7.116C2.804,-8.665 1.549,-9.92 0,-9.92" style="fill:rgb(229,57,23);fill-rule:nonzero;"/>
                </g>
                <g transform="matrix(1,0,0,1,490.944,230.313)">
                    <path d="M0,-9.92L-4.312,-9.92C-5.861,-9.92 -7.117,-8.665 -7.117,-7.116L-7.117,-2.804C-7.117,-1.255 -5.861,0 -4.312,0L0,0C1.548,0 2.804,-1.255 2.804,-2.804L2.804,-7.116C2.804,-8.665 1.548,-9.92 0,-9.92" style="fill:rgb(234,106,0);fill-rule:nonzero;"/>
                </g>
                <g transform="matrix(1,0,0,1,490.944,215.432)">
                    <path d="M0,-9.92L-4.312,-9.92C-5.861,-9.92 -7.117,-8.665 -7.117,-7.116L-7.117,-2.804C-7.117,-1.255 -5.861,0 -4.312,0L0,0C1.548,0 2.804,-1.255 2.804,-2.804L2.804,-7.116C2.804,-8.665 1.548,-9.92 0,-9.92" style="fill:rgb(234,106,0);fill-rule:nonzero;"/>
                </g>
                <g transform="matrix(1,0,0,1,490.944,200.552)">
                    <path d="M0,-9.92L-4.312,-9.92C-5.861,-9.92 -7.117,-8.665 -7.117,-7.116L-7.117,-2.804C-7.117,-1.255 -5.861,0 -4.312,0L0,0C1.548,0 2.804,-1.255 2.804,-2.804L2.804,-7.116C2.804,-8.665 1.548,-9.92 0,-9.92" style="fill:rgb(234,106,0);fill-rule:nonzero;"/>
                </g>
                <g transform="matrix(1,0,0,1,505.824,215.432)">
                    <path d="M0,-9.92L-4.312,-9.92C-5.86,-9.92 -7.116,-8.665 -7.116,-7.116L-7.116,-2.804C-7.116,-1.255 -5.86,0 -4.312,0L0,0C1.549,0 2.805,-1.255 2.805,-2.804L2.805,-7.116C2.805,-8.665 1.549,-9.92 0,-9.92" style="fill:rgb(239,139,0);fill-rule:nonzero;"/>
                </g>
            </g>
        </g>
    </g>
</svg>
