<svg width="120" height="120" viewBox="0 0 120 120" fill="none" xmlns="http://www.w3.org/2000/svg">
  <path fill-rule="evenodd" clip-rule="evenodd" d="M27.8542 70.5721C27.9165 70.574 27.9782 70.5777 28.0394 70.5833H28.4672L28.4847 70.5834C28.5351 70.5837 28.5856 70.5838 28.6363 70.5838C28.687 70.5838 28.7376 70.5837 28.7879 70.5834L28.8054 70.5833H53.1H59.1509V58.8191L51.1609 66.8034C50.5749 67.3889 49.6251 67.3886 49.0395 66.8026C48.454 66.2166 48.4543 65.2669 49.0403 64.6813L58.6975 55.031C59.2832 54.4457 60.2324 54.4457 60.8181 55.031L70.4753 64.6813C71.0613 65.2669 71.0616 66.2166 70.476 66.8026C69.8905 67.3886 68.9407 67.3889 68.3547 66.8034L62.1509 60.604V70.5833H67.2H76.0504V39.5192L68.061 47.5028C67.475 48.0884 66.5253 48.0881 65.9397 47.5021C65.3541 46.9161 65.3545 45.9663 65.9405 45.3808L75.5977 35.7305C76.1834 35.1452 77.1325 35.1452 77.7182 35.7305L87.3755 45.3808C87.9614 45.9663 87.9618 46.9161 87.3762 47.5021C86.7906 48.0881 85.8409 48.0884 85.2549 47.5028L79.0504 41.3028V70.5833H81.3H97.435C97.5083 70.5749 97.5824 70.5692 97.6572 70.5661C108.415 70.1277 117 61.2722 117 50.4181C117 39.2833 107.966 30.253 96.8183 30.253C95.9481 30.253 95.0922 30.3079 94.2535 30.414C93.2986 30.5348 92.3436 30.1901 91.686 29.4871C91.0285 28.7841 90.7482 27.8082 90.9324 26.8634C91.0364 26.3305 91.0913 25.7778 91.0913 25.2093C91.0913 20.4713 87.247 16.6268 82.5004 16.6268C80.9754 16.6268 79.5517 17.0211 78.3165 17.711C77.5213 18.1551 76.5675 18.2139 75.7238 17.8709C74.8801 17.528 74.2379 16.8203 73.9782 15.9474C71.75 8.45856 64.8055 3 56.591 3C47.7094 3 40.3156 9.38117 38.7575 17.8029C38.6062 18.6207 38.1222 19.339 37.421 19.7863C36.7198 20.2336 35.8644 20.3697 35.059 20.1622C33.0096 19.6342 30.8581 19.3524 28.6363 19.3524C14.4757 19.3524 3 30.823 3 44.9681C3 58.852 14.0565 70.1599 27.8542 70.5721ZM53.1 73.5833H59.1509L59.1509 102.241C59.1509 103.069 59.8225 103.741 60.6509 103.741C61.4794 103.741 62.1509 103.069 62.1509 102.241L62.1509 73.5833H67.2H76.0504V82.9398C76.0504 83.7683 76.722 84.4398 77.5504 84.4398C78.3788 84.4398 79.0504 83.7683 79.0504 82.9398V73.5833H81.3H94.7794H97.7794V73.5636C110.137 73.06 120 62.8901 120 50.4181C120 37.6678 109.692 27.3235 96.9487 27.2534C96.9052 27.2531 96.8618 27.253 96.8183 27.253C95.8219 27.253 94.8402 27.3158 93.8769 27.4377C94.0176 26.7166 94.0913 25.9716 94.0913 25.2093C94.0913 24.936 94.0818 24.665 94.0632 24.3964C93.6456 18.3788 88.6284 13.6268 82.5004 13.6268C81.5172 13.6268 80.5626 13.7491 79.651 13.9793C78.6618 14.2292 77.7232 14.6062 76.8536 15.0918C76.5636 14.1169 76.205 13.1715 75.7834 12.2612C72.4311 5.02208 65.098 0 56.591 0C47.2519 0 39.3275 6.05264 36.5318 14.4465C36.2284 15.3574 35.9854 16.2958 35.8076 17.2571C34.8459 17.0093 33.8647 16.8102 32.8667 16.6625C31.4862 16.4583 30.0736 16.3524 28.6363 16.3524C12.8209 16.3524 0 29.1641 0 44.9681C0 60.4808 12.3525 73.1104 27.7646 73.5708V73.5833H28.4672C28.5236 73.5836 28.5799 73.5838 28.6363 73.5838C28.6927 73.5838 28.7491 73.5836 28.8054 73.5833H30.7646H53.1ZM70.6007 82.8992C70.6007 82.0708 69.9291 81.3992 69.1007 81.3992C68.2722 81.3992 67.6007 82.0708 67.6007 82.8992V91.9621C67.6007 92.7905 68.2722 93.4621 69.1007 93.4621C69.9291 93.4621 70.6007 92.7905 70.6007 91.9621V82.8992ZM69.1007 95.8743C69.9291 95.8743 70.6007 96.5459 70.6007 97.3743V118.5C70.6007 119.328 69.9291 120 69.1007 120C68.2722 120 67.6007 119.328 67.6007 118.5V97.3743C67.6007 96.5459 68.2722 95.8743 69.1007 95.8743Z" fill="white"/>
</svg>
