<svg width="131" height="120" viewBox="0 0 131 120" fill="none" xmlns="http://www.w3.org/2000/svg">
  <path fill-rule="evenodd" clip-rule="evenodd" d="M122 3H9C5.68629 3 3 5.6863 3 9.00001V77.3964H128V9C128 5.68629 125.314 3 122 3ZM3 89.0032V79.3964H128V89.0032C128 92.3169 125.314 95.0032 122 95.0032H9C5.68629 95.0032 3 92.3169 3 89.0032ZM9 0C4.02944 0 0 4.02944 0 9.00001V89.0032C0 93.9738 4.02944 98.0032 9 98.0032H51.8219L46.6225 117H40.2682C39.4398 117 38.7682 117.671 38.7682 118.5C38.7682 119.328 39.4398 120 40.2682 120H91.0287C91.8572 120 92.5287 119.328 92.5287 118.5C92.5287 117.671 91.8572 117 91.0287 117H85.6858L80.4863 98.0032H122C126.971 98.0032 131 93.9738 131 89.0032V9C131 4.02944 126.971 0 122 0H9ZM82.5763 117H49.7319L54.9314 98.0032H77.3768L82.5763 117ZM66.1536 89.5474C67.2741 89.5474 68.1823 88.6385 68.1823 87.5172C68.1823 86.396 67.2741 85.4871 66.1536 85.4871C65.0332 85.4871 64.1249 86.396 64.1249 87.5172C64.1249 88.6385 65.0332 89.5474 66.1536 89.5474ZM41.5833 24.2952C41.2425 24.4639 41.0268 24.8111 41.0268 25.1913C41.0268 25.5715 41.2425 25.9187 41.5833 26.0874L65.3855 37.8627C65.6651 38.001 65.9932 38.001 66.2728 37.8627L90.0749 26.0873C90.4158 25.9187 90.6315 25.5714 90.6315 25.1913C90.6315 24.8111 90.4158 24.4639 90.0749 24.2952L66.2728 12.5199C65.9932 12.3816 65.6651 12.3816 65.3855 12.5199L41.5833 24.2952ZM65.8291 35.8511L44.2819 25.1913L65.8291 14.5315L87.3764 25.1913L65.8291 35.8511ZM40.0663 28.1602C39.7562 28.0068 39.3889 28.0245 39.095 28.2068C38.8011 28.3892 38.6224 28.7105 38.6224 29.0562L38.6224 56.2427C38.6224 56.6229 38.8381 56.9701 39.1789 57.1388L62.9811 68.9141C63.2911 69.0675 63.6584 69.0499 63.9523 68.8675C64.2462 68.6851 64.4249 68.3638 64.425 68.0181L64.4249 40.8316C64.4249 40.4514 64.2093 40.1042 63.8684 39.9355L40.0663 28.1602ZM62.4245 66.4077L40.6228 55.622L40.6228 30.6666L62.4245 41.4523L62.4245 66.4077ZM67.7898 39.9356C67.449 40.1042 67.2333 40.4515 67.2333 40.8316L67.2333 68.0181C67.2333 68.3639 67.412 68.6851 67.7059 68.8675C67.9998 69.0499 68.3671 69.0675 68.6772 68.9141L92.4793 57.1388C92.8202 56.9702 93.0359 56.6229 93.0359 56.2427L93.0359 29.0563C93.0359 28.7105 92.8571 28.3892 92.5632 28.2069C92.2693 28.0245 91.902 28.0068 91.592 28.1602L67.7898 39.9356ZM69.2337 66.4077L69.2337 41.4523L91.0354 30.6666L91.0354 55.622L69.2337 66.4077Z" fill="white"/>
</svg>
