<svg width="119" height="118" viewBox="0 0 119 118" fill="none" xmlns="http://www.w3.org/2000/svg">
  <path fill-rule="evenodd" clip-rule="evenodd" d="M87.0527 10.0878L108.588 31.6233C111.428 25.5763 113.518 18.9795 114.959 11.5172L114.982 11.361L115.439 6.86859L115.439 6.82186C115.441 6.68761 115.443 6.49354 115.434 6.30159C115.436 4.47303 113.999 3.0573 112.297 3.00388C112.169 3.00558 112.021 3.0042 111.87 3.00202L111.77 3.00059L107.127 3.73541C106.868 3.77696 106.61 3.81996 106.352 3.8644C103.665 4.3451 101.019 4.96149 98.4227 5.70969C94.6273 6.8279 90.8567 8.28113 87.0527 10.0878ZM84.5783 11.183L107.48 34.085C103.797 41.307 99.0136 47.9457 93.3135 53.6458L69.4476 77.5117L41.1705 49.2346L64.7923 25.6129C70.6743 19.7309 77.3385 14.8851 84.5783 11.183ZM97.4717 3.35782C100.344 2.50102 103.231 1.82952 106.157 1.33521C106.346 1.30202 106.535 1.26949 106.724 1.23759L111.232 0.497133C111.357 0.489569 111.471 0.484132 111.575 0.480443C111.611 0.477574 111.646 0.476127 111.68 0.476859L111.692 0.476948C111.89 0.472091 112.058 0.473746 112.22 0.47877C112.251 0.478685 112.281 0.478868 112.311 0.479317C112.333 0.478865 112.355 0.478277 112.378 0.477528C115.61 0.491216 118.185 3.20635 118.203 6.50567L118.199 7.27872L117.474 11.7796L117.464 11.8818C114.682 28.3526 106.744 43.7907 95.1012 55.4335L80.7001 69.8346L80.7202 84.3263C80.7205 84.6613 80.5903 84.9838 80.3529 85.2211L72.849 92.725C72.3551 93.2189 71.5561 93.2182 71.0614 92.7236L64.4362 86.0983L62.0723 88.4622C60.5674 89.9671 58.2951 89.9639 56.7877 88.4564L52.4371 84.1059L51.5993 86.4821C50.8515 88.7441 49.6189 90.8176 48.0331 92.4776C47.9769 92.5696 47.9097 92.6588 47.8315 92.737C47.3376 93.2308 46.5386 93.2302 46.0453 92.7369C46.0432 92.7355 46.0411 92.7338 46.0389 92.7318L46.0342 92.727L46.0286 92.721L46.0286 92.7209L46.0285 92.7209C46.0252 92.7172 46.0217 92.7133 46.0178 92.7094L25.9704 72.6621C25.4771 72.1688 25.4751 71.3683 25.9689 70.8744C27.9362 68.9072 30.1319 67.5855 32.3241 67.0505L34.5818 66.2506L30.2241 61.8929C28.7428 60.4116 28.7409 58.0885 30.2197 56.6096L32.5834 54.2459L25.9693 47.6318C25.476 47.1385 25.4739 46.3381 25.9678 45.8442L33.4717 38.3403C33.7091 38.1029 34.0316 37.9727 34.3652 37.9716L48.8484 37.9812L63.0045 23.8251C72.7156 14.114 84.4963 7.14218 97.4717 3.35782ZM71.9529 90.0457L66.2214 84.3141L78.1811 72.3544L78.1962 83.8024L71.9529 90.0457ZM28.6855 71.8076L46.8641 89.9861C47.879 88.7375 48.6823 87.2636 49.2095 85.6618L50.4547 82.1301L36.5553 68.2307L33.0455 69.4676C31.5547 69.837 30.0603 70.6472 28.6855 71.8076ZM34.3677 52.4609L28.6458 46.7389L34.8891 40.4956L46.3247 40.5039L34.3677 52.4609ZM81.3719 37.311C80.2176 36.1568 78.6354 35.521 76.9164 35.5168C75.1974 35.5126 73.6135 36.1429 72.4612 37.2925C71.3061 38.4449 70.669 40.0356 70.6691 41.767C70.6761 45.1981 73.4807 48.0055 76.9145 48.0098C78.6459 48.0126 80.2339 47.3727 81.3862 46.2176C82.5358 45.0652 83.1688 43.4841 83.1618 41.7651C83.1604 40.0461 82.5248 38.464 81.3719 37.311ZM70.6812 48.0018C69.0501 46.3707 68.1503 44.1566 68.1455 41.7649C68.1449 39.358 69.0451 37.1331 70.6776 35.5034C72.3087 33.8778 74.5253 32.9859 76.9184 32.992C79.3088 32.9981 81.5228 33.8979 83.1539 35.529C84.785 37.1601 85.6848 39.3741 85.6882 41.7645C85.6943 44.1549 84.8024 46.3715 83.1768 48.0026C81.547 49.6351 79.3235 50.5367 76.918 50.5347C74.5262 50.5327 72.3123 49.6329 70.6812 48.0018ZM84.9071 33.7812C82.8033 31.6774 79.9603 30.519 76.9026 30.5178C70.5992 30.5139 65.6592 35.4539 65.6563 41.7641C65.6643 44.8149 66.824 47.6566 68.9279 49.7605C71.0303 51.8629 73.872 53.0227 76.9228 53.028C83.2304 53.025 88.1704 48.0851 88.1679 41.7803C88.168 38.7268 87.0095 35.8837 84.9071 33.7812ZM67.1445 51.5438C64.5638 48.9632 63.1413 45.4883 63.1327 41.762C63.1359 34.0362 69.1843 27.9879 76.8991 27.9929C80.6336 27.9933 84.1098 29.4172 86.6905 31.9978C89.2711 34.5785 90.6923 38.0548 90.6914 41.7852C90.6951 49.4986 84.6466 55.5471 76.9249 55.5516C73.1986 55.5457 69.7251 54.1245 67.1445 51.5438ZM32.0075 58.3974L39.3688 51.0362L67.6459 79.3132L60.2846 86.6745C59.7729 87.1862 59.0849 87.1843 58.5724 86.6717L32.0089 60.1082C31.5046 59.6039 31.5027 58.9023 32.0075 58.3974ZM6.84846 97.3249C6.36696 97.8202 6.37384 98.6116 6.86244 99.1002L6.87344 99.1112C7.37578 99.5999 8.17406 99.5916 8.66105 99.0936L27.4353 79.865C27.9168 79.3698 27.9101 78.5783 27.4201 78.0883L27.4105 78.0787C26.9082 77.5901 26.1098 77.5984 25.6228 78.0964L6.84846 97.3249ZM12.9032 105.141C12.4133 104.651 12.4064 103.86 12.8879 103.364L31.6526 84.1262C32.1382 83.6296 32.9379 83.6198 33.4389 84.1071L33.4499 84.1181C33.9385 84.6067 33.9466 85.3996 33.4638 85.8935L14.7004 105.133C14.2148 105.63 13.4152 105.639 12.9142 105.152L12.9032 105.141ZM18.9231 109.399C18.4416 109.894 18.4484 110.685 18.937 111.174L18.948 111.185C19.4504 111.674 20.2486 111.665 20.7356 111.167L39.5086 91.9376C39.9901 91.4424 39.9834 90.6509 39.4934 90.1609L39.4837 90.1512C38.9814 89.6626 38.183 89.6709 37.6961 90.1689L18.9231 109.399ZM59.7362 93.0468C60.127 93.4377 60.1276 94.0708 59.7374 94.461L47.3964 106.802C47.0062 107.192 46.373 107.192 45.9822 106.801C45.5913 106.41 45.5908 105.777 45.981 105.387L58.322 93.0456C58.7122 92.6554 59.3453 92.656 59.7362 93.0468ZM42.7142 110.069C43.105 110.46 43.1056 111.093 42.7154 111.483L37.1832 117.015C36.793 117.405 36.1598 117.405 35.769 117.014C35.3781 116.623 35.3776 115.99 35.7678 115.6L41.3 110.068C41.6902 109.677 42.3233 109.678 42.7142 110.069ZM25.2253 61.0391C25.6152 60.6492 25.6141 60.016 25.223 59.6249C24.8318 59.2337 24.1986 59.2327 23.8087 59.6225L11.4776 71.9537C11.0877 72.3435 11.0888 72.9767 11.4799 73.3679C11.8711 73.759 12.5043 73.7601 12.8941 73.3702L25.2253 61.0391ZM8.21683 78.0475C8.60672 77.6576 8.60568 77.0245 8.21452 76.6333C7.82336 76.2421 7.1902 76.2411 6.8003 76.631L1.27257 82.1587C0.882677 82.5486 0.883717 83.1818 1.27488 83.5729C1.66604 83.9641 2.2992 83.9651 2.68909 83.5752L8.21683 78.0475Z" fill="white"/>
</svg>
